<svg width="16" height="17" viewBox="0 0 16 17" fill="none" xmlns="http://www.w3.org/2000/svg">
<path d="M12.1421 5.86696V7.19839C11.8632 7.16035 11.5462 7.14132 11.1911 7.13498V5.86696C11.1911 3.86983 10.6268 2.53842 7.86257 2.53842C5.09829 2.53842 4.53402 3.86983 4.53402 5.86696V7.13498C4.17898 7.14132 3.86197 7.16035 3.58301 7.19839V5.86696C3.58301 4.02834 4.02681 1.5874 7.86257 1.5874C11.6983 1.5874 12.1421 4.02834 12.1421 5.86696Z" fill="white"/>
<path opacity="0.4" d="M14.2036 10.3051V11.5731C14.2036 14.1091 13.5696 14.7431 11.0336 14.7431H4.69348C2.15745 14.7431 1.52344 14.1091 1.52344 11.5731V10.3051C1.52344 8.18746 1.96724 7.39496 3.58397 7.19841C3.86293 7.16037 4.17994 7.14135 4.53498 7.13501H11.1921C11.5471 7.14135 11.8641 7.16037 12.1431 7.19841C13.7598 7.39496 14.2036 8.18746 14.2036 10.3051Z" fill="white"/>
<path d="M5.32737 11.5732C5.24495 11.5732 5.16252 11.5542 5.08644 11.5225C5.00402 11.4908 4.94063 11.4464 4.87723 11.3894C4.76311 11.2689 4.69336 11.1041 4.69336 10.9392C4.69336 10.8568 4.71237 10.7744 4.74407 10.6983C4.77577 10.6222 4.82017 10.5525 4.87723 10.4891C4.94063 10.432 5.00402 10.3876 5.08644 10.3559C5.32103 10.2545 5.59999 10.3115 5.77751 10.4891C5.83457 10.5525 5.87896 10.6222 5.91067 10.6983C5.94237 10.7744 5.96138 10.8568 5.96138 10.9392C5.96138 11.1041 5.89163 11.2689 5.77751 11.3894C5.65705 11.5035 5.49221 11.5732 5.32737 11.5732Z" fill="white"/>
<path d="M7.86252 11.5731C7.69134 11.5731 7.53285 11.5033 7.41238 11.3892C7.35532 11.3258 7.31093 11.2561 7.27923 11.18C7.24753 11.1039 7.22852 11.0215 7.22852 10.9391C7.22852 10.7679 7.29826 10.6094 7.41238 10.4889C7.64697 10.2543 8.07174 10.2543 8.31267 10.4889C8.42679 10.6094 8.49653 10.7679 8.49653 10.9391C8.49653 11.0215 8.47752 11.1039 8.44582 11.18C8.41412 11.2561 8.36973 11.3258 8.31267 11.3892C8.1922 11.5033 8.02737 11.5731 7.86252 11.5731Z" fill="white"/>
<path d="M10.3987 11.573C10.2338 11.573 10.069 11.5032 9.94852 11.3891C9.83439 11.2686 9.76465 11.1101 9.76465 10.939C9.76465 10.7678 9.83439 10.6093 9.94852 10.4888C10.1894 10.2542 10.6142 10.2542 10.8488 10.4888C10.8742 10.5205 10.8995 10.5522 10.9249 10.5902C10.9502 10.6219 10.9693 10.66 10.982 10.698C11.001 10.7361 11.0137 10.7741 11.02 10.8122C11.0263 10.8565 11.0327 10.9009 11.0327 10.939C11.0327 11.1038 10.9629 11.2686 10.8488 11.3891C10.7283 11.5032 10.5635 11.573 10.3987 11.573Z" fill="white"/>
</svg>
