<svg width="1512" height="501" viewBox="0 0 1512 501" fill="none" xmlns="http://www.w3.org/2000/svg">
<path fill-rule="evenodd" clip-rule="evenodd" d="M113.069 79.7738C87.6906 66.7867 63.7574 43 35.2487 43C0.869682 43 -27 70.8697 -27 105.249V435C-27 471.451 2.54923 501 39 501H1473C1509.45 501 1539 471.451 1539 435V109C1539 72.5492 1509.45 43 1473 43L245.673 43C215.446 43 189.877 68.6711 162.296 81.0376C155.184 84.2264 147.299 86 139 86C129.662 86 120.848 83.7544 113.069 79.7738Z" fill="#0A1450"/>
<circle cx="139.5" cy="38.5" r="38" stroke="url(#paint0_linear_0_1)"/>
<path fill-rule="evenodd" clip-rule="evenodd" d="M130.187 51.8467C130.457 52.0275 130.789 52.0929 131.109 52.0285C131.429 51.9641 131.711 51.7751 131.892 51.5032L148.046 27.3209L150.157 38.0639C150.22 38.3844 150.408 38.6662 150.679 38.8473C150.95 39.0283 151.282 39.0938 151.603 39.0293C151.923 38.9648 152.205 38.7756 152.387 38.5033C152.569 38.2311 152.635 37.898 152.572 37.5775L149.886 23.9209C149.855 23.7621 149.793 23.6111 149.704 23.4766C149.614 23.3421 149.499 23.2267 149.365 23.137C149.231 23.0473 149.08 22.9851 148.921 22.954C148.763 22.9228 148.6 22.9233 148.441 22.9555L134.797 25.7034C134.638 25.7353 134.487 25.7982 134.353 25.8885C134.218 25.9787 134.103 26.0946 134.013 26.2294C133.831 26.5016 133.764 26.8347 133.827 27.1552C133.89 27.4757 134.078 27.7575 134.349 27.9386C134.62 28.1196 134.952 28.1851 135.272 28.1206L146.005 25.9573L129.851 50.1396C129.669 50.4115 129.603 50.7442 129.666 51.0643C129.729 51.3844 129.916 51.6659 130.187 51.8467Z" fill="white"/>
<defs>
<linearGradient id="paint0_linear_0_1" x1="139.5" y1="0" x2="140" y2="74.5" gradientUnits="userSpaceOnUse">
<stop stop-color="white"/>
<stop offset="1" stop-color="#999999" stop-opacity="0.31"/>
</linearGradient>
</defs>
</svg>
