 <svg
                      width="19"
                      height="18"
                      viewBox="0 0 19 18"
                      fill="none"
                      xmlns="http://www.w3.org/2000/svg"
                    >
                      <path
                        d="M16.0006 10.703C15.4636 10.0914 14.6655 9.71094 13.7853 9.71094C12.9499 9.71094 12.1891 10.0541 11.6446 10.6135C11.1225 11.1505 10.8018 11.8889 10.8018 12.6945C10.8018 13.2539 10.9584 13.7835 11.2344 14.231C11.3836 14.4847 11.5775 14.7159 11.8013 14.9098C12.3234 15.3872 13.0171 15.6781 13.7853 15.6781C14.8743 15.6781 15.8216 15.0963 16.3363 14.231C16.4929 13.9774 16.6123 13.6865 16.6794 13.3882C16.7391 13.1644 16.7689 12.9332 16.7689 12.6945C16.7689 11.9337 16.478 11.2326 16.0006 10.703ZM14.9042 13.239H12.674C12.3681 13.239 12.1145 12.9854 12.1145 12.6796C12.1145 12.3738 12.3681 12.1202 12.674 12.1202H14.9042C15.21 12.1202 15.4636 12.3738 15.4636 12.6796C15.4636 12.9854 15.21 13.239 14.9042 13.239Z"
                        fill="white"
                      />
                      <path
                        opacity="0.4"
                        d="M16.0897 16.051C16.0897 16.2598 15.9256 16.4239 15.7167 16.4239H2.90224C2.69339 16.4239 2.5293 16.2598 2.5293 16.051C2.5293 12.963 5.57256 10.4568 9.30948 10.4568C10.0778 10.4568 10.8237 10.5612 11.5099 10.7626C11.0698 11.2847 10.8013 11.9635 10.8013 12.6945C10.8013 13.2539 10.9579 13.7835 11.2339 14.231C11.3831 14.4846 11.577 14.7158 11.8008 14.9097C12.3229 15.3871 13.0166 15.678 13.7848 15.678C14.6202 15.678 15.3736 15.3349 15.9106 14.783C16.03 15.1857 16.0897 15.6109 16.0897 16.051Z"
                        fill="white"
                      />
                      <path
                        d="M9.30954 8.96503C11.3693 8.96503 13.039 7.29529 13.039 5.23557C13.039 3.17584 11.3693 1.5061 9.30954 1.5061C7.24982 1.5061 5.58008 3.17584 5.58008 5.23557C5.58008 7.29529 7.24982 8.96503 9.30954 8.96503Z"
                        fill="white"
                      />
                    </svg>