  <svg
                      width="17"
                      height="17"
                      viewBox="0 0 17 17"
                      fill="none"
                      xmlns="http://www.w3.org/2000/svg"
                    >
                      <path
                        opacity="0.4"
                        d="M5.17894 14.8922C5.1588 14.8922 5.13195 14.9056 5.11181 14.9056C3.80948 14.2612 2.74882 13.1938 2.09766 11.8915C2.09766 11.8713 2.11108 11.8445 2.11108 11.8243C2.93007 12.066 3.77592 12.2473 4.61504 12.3882C4.76273 13.2341 4.93727 14.0732 5.17894 14.8922Z"
                        fill="white"
                      />
                      <path
                        opacity="0.4"
                        d="M14.1011 11.8982C13.4365 13.2341 12.3288 14.3149 10.9795 14.966C11.2346 14.1135 11.4494 13.2542 11.5904 12.3882C12.4362 12.2473 13.2686 12.066 14.0876 11.8243C14.0809 11.8512 14.1011 11.878 14.1011 11.8982Z"
                        fill="white"
                      />
                      <path
                        opacity="0.4"
                        d="M14.1548 6.03098C13.3089 5.77588 12.4564 5.56778 11.5904 5.42009C11.4494 4.55411 11.2413 3.69484 10.9795 2.85571C12.3691 3.5203 13.4902 4.64138 14.1548 6.03098Z"
                        fill="white"
                      />
                      <path
                        opacity="0.4"
                        d="M5.17991 2.92956C4.93824 3.74855 4.7637 4.58097 4.62273 5.42681C3.75675 5.56107 2.89748 5.77589 2.04492 6.03099C2.69609 4.68167 3.77689 3.57401 5.11278 2.90942C5.13292 2.90942 5.15977 2.92956 5.17991 2.92956Z"
                        fill="white"
                      />
                      <path
                        d="M10.4425 5.27916C8.88511 5.10462 7.31426 5.10462 5.75684 5.27916C5.92466 4.35947 6.13948 3.43979 6.44157 2.55367C6.45499 2.49996 6.44828 2.45968 6.45499 2.40598C6.98532 2.27843 7.52908 2.19788 8.09969 2.19788C8.66358 2.19788 9.21405 2.27843 9.73767 2.40598C9.74438 2.45968 9.74438 2.49996 9.75781 2.55367C10.0599 3.4465 10.2747 4.35947 10.4425 5.27916Z"
                        fill="white"
                      />
                      <path
                        d="M4.468 11.2538C3.5416 11.086 2.62863 10.8712 1.74251 10.5691C1.68881 10.5557 1.64853 10.5624 1.59482 10.5557C1.46728 10.0253 1.38672 9.48157 1.38672 8.91096C1.38672 8.34707 1.46728 7.7966 1.59482 7.27298C1.64853 7.26627 1.68881 7.26627 1.74251 7.25284C2.63534 6.95747 3.5416 6.73594 4.468 6.56812C4.30018 8.12554 4.30018 9.69639 4.468 11.2538Z"
                        fill="white"
                      />
                      <path
                        d="M14.8127 8.91096C14.8127 9.48157 14.7322 10.0253 14.6046 10.5557C14.5509 10.5624 14.5106 10.5557 14.4569 10.5691C13.5641 10.8645 12.6511 11.086 11.7314 11.2538C11.906 9.69639 11.906 8.12554 11.7314 6.56812C12.6511 6.73594 13.5708 6.95076 14.4569 7.25284C14.5106 7.26627 14.5509 7.27298 14.6046 7.27298C14.7322 7.80331 14.8127 8.34707 14.8127 8.91096Z"
                        fill="white"
                      />
                      <path
                        d="M10.4425 12.5426C10.2747 13.469 10.0599 14.382 9.75781 15.2681C9.74438 15.3218 9.74438 15.3621 9.73767 15.4158C9.21405 15.5433 8.66358 15.6239 8.09969 15.6239C7.52908 15.6239 6.98532 15.5433 6.45499 15.4158C6.44828 15.3621 6.45499 15.3218 6.44157 15.2681C6.14619 14.3753 5.92466 13.469 5.75684 12.5426C6.53555 12.6299 7.31426 12.6903 8.09969 12.6903C8.88511 12.6903 9.67054 12.6299 10.4425 12.5426Z"
                        fill="white"
                      />
                      <path
                        d="M10.6256 11.4373C8.94662 11.6491 7.25193 11.6491 5.57294 11.4373C5.3611 9.75827 5.3611 8.06358 5.57294 6.38458C7.25193 6.17275 8.94662 6.17275 10.6256 6.38458C10.8375 8.06358 10.8375 9.75827 10.6256 11.4373Z"
                        fill="white"
                      />
                    </svg>